# Blender v2.78 (sub 0) OBJ File: ''
# www.blender.org
o Cone_Cone.003
v -0.703161 0.000000 0.514192
v -0.351580 0.608955 0.514192
v 0.351580 0.608955 0.514192
v 0.703161 -0.000000 0.514192
v 0.000000 0.000000 2.526530
v 0.351580 -0.608955 0.514192
v -0.351580 -0.608955 0.514192
v -0.340001 0.000000 -0.053138
v -0.340001 0.000000 0.553673
v 0.170000 0.294449 -0.053138
v 0.170000 0.294449 0.553673
v 0.170000 -0.294449 -0.053138
v 0.170000 -0.294449 0.553673
vn -0.8289 0.4786 0.2896
vn 0.0000 0.9571 0.2896
vn 0.8289 0.4786 0.2896
vn 0.8289 -0.4786 0.2896
vn 0.0000 -0.9571 0.2896
vn -0.8289 -0.4786 0.2896
vn 0.0000 0.0000 -1.0000
vn -0.5000 0.8660 0.0000
vn 1.0000 -0.0000 0.0000
vn -0.0000 0.0000 1.0000
vn -0.5000 -0.8660 0.0000
s off
f 1//1 5//1 2//1
f 2//2 5//2 3//2
f 3//3 5//3 4//3
f 4//4 5//4 6//4
f 6//5 5//5 7//5
f 7//6 5//6 1//6
f 2//7 4//7 7//7
f 9//8 10//8 8//8
f 11//9 12//9 10//9
f 11//10 9//10 13//10
f 13//11 8//11 12//11
f 8//7 10//7 12//7
f 7//7 1//7 2//7
f 2//7 3//7 4//7
f 4//7 6//7 7//7
f 9//8 11//8 10//8
f 11//9 13//9 12//9
f 13//11 9//11 8//11
